<svg width="120" height="30" viewBox="0 0 120 30" fill="none" xmlns="http://www.w3.org/2000/svg">
<path d="M10.6 22H1.7V7.82H4.1V19.72H10.6V22ZM14.1747 16.06H18.9547C18.928 15.4467 18.708 14.9333 18.2947 14.52C17.8947 14.1067 17.3147 13.9 16.5547 13.9C15.8614 13.9 15.3014 14.12 14.8747 14.56C14.448 14.9867 14.2147 15.4867 14.1747 16.06ZM19.2147 18.6L21.1747 19.22C20.8947 20.1133 20.368 20.8533 19.5947 21.44C18.8347 22.0133 17.8947 22.3 16.7747 22.3C15.388 22.3 14.208 21.8267 13.2347 20.88C12.2747 19.9333 11.7947 18.6667 11.7947 17.08C11.7947 15.5867 12.2614 14.36 13.1947 13.4C14.1414 12.44 15.2547 11.96 16.5347 11.96C18.028 11.96 19.1947 12.42 20.0347 13.34C20.8747 14.2467 21.2947 15.4733 21.2947 17.02C21.2947 17.4333 21.2747 17.68 21.2347 17.76H14.1147C14.1414 18.4933 14.408 19.1 14.9147 19.58C15.4347 20.06 16.0547 20.3 16.7747 20.3C18.028 20.3 18.8414 19.7333 19.2147 18.6ZM22.9117 19.36C22.9117 18.5333 23.1784 17.8733 23.7117 17.38C24.2584 16.8733 24.9717 16.5533 25.8517 16.42L28.3517 16.04C28.8317 15.9733 29.0717 15.74 29.0717 15.34C29.0717 14.9 28.9184 14.5467 28.6117 14.28C28.3051 14 27.8451 13.86 27.2317 13.86C26.6451 13.86 26.1784 14.0267 25.8317 14.36C25.4851 14.68 25.2851 15.1 25.2317 15.62L23.1117 15.14C23.2051 14.26 23.6251 13.5133 24.3717 12.9C25.1184 12.2733 26.0651 11.96 27.2117 11.96C28.6251 11.96 29.6651 12.3 30.3317 12.98C31.0117 13.66 31.3517 14.5333 31.3517 15.6V20.44C31.3517 21.08 31.3917 21.6 31.4717 22H29.3117C29.2451 21.8 29.2117 21.3867 29.2117 20.76C28.5717 21.7867 27.5717 22.3 26.2117 22.3C25.2251 22.3 24.4251 22.0133 23.8117 21.44C23.2117 20.8533 22.9117 20.16 22.9117 19.36ZM26.6517 20.48C27.3717 20.48 27.9517 20.2867 28.3917 19.9C28.8451 19.5 29.0717 18.8533 29.0717 17.96V17.52L26.5317 17.9C25.6651 18.0467 25.2317 18.4867 25.2317 19.22C25.2317 19.5667 25.3584 19.8667 25.6117 20.12C25.8651 20.36 26.2117 20.48 26.6517 20.48ZM39.8563 12.2V14.56C39.5896 14.52 39.3363 14.5 39.0963 14.5C37.3496 14.5 36.4763 15.4533 36.4763 17.36V22H34.1563V12.26H36.4163V13.82C36.6429 13.3 37.0096 12.8933 37.5163 12.6C38.0229 12.2933 38.5963 12.14 39.2363 12.14C39.4496 12.14 39.6563 12.16 39.8563 12.2ZM44.113 16.38V22H41.793V12.26H44.053V13.56C44.3596 13.0267 44.7663 12.6333 45.273 12.38C45.793 12.1133 46.3463 11.98 46.933 11.98C48.0796 11.98 48.953 12.34 49.553 13.06C50.153 13.78 50.453 14.7067 50.453 15.84V22H48.133V16.24C48.133 15.5867 47.973 15.0667 47.653 14.68C47.333 14.28 46.8263 14.08 46.133 14.08C45.493 14.08 44.993 14.3 44.633 14.74C44.2863 15.1667 44.113 15.7133 44.113 16.38ZM60.5383 22H58.2383V12.26H60.4583V13.5C60.7249 13.02 61.1249 12.6467 61.6583 12.38C62.2049 12.1133 62.7649 11.98 63.3383 11.98C63.9916 11.98 64.5783 12.1267 65.0983 12.42C65.6183 12.7133 66.0049 13.14 66.2583 13.7C66.9383 12.5533 67.9916 11.98 69.4183 11.98C70.3783 11.98 71.1916 12.2933 71.8583 12.92C72.5249 13.5467 72.8583 14.4667 72.8583 15.68V22H70.6183V16.06C70.6183 15.46 70.4583 14.98 70.1383 14.62C69.8316 14.2467 69.3649 14.06 68.7383 14.06C68.1383 14.06 67.6516 14.2667 67.2783 14.68C66.9049 15.0933 66.7183 15.6067 66.7183 16.22V22H64.4383V16.06C64.4383 15.46 64.2783 14.98 63.9583 14.62C63.6516 14.2467 63.1849 14.06 62.5583 14.06C61.9449 14.06 61.4516 14.2667 61.0783 14.68C60.7183 15.08 60.5383 15.5933 60.5383 16.22V22ZM78.0392 19.4C78.5726 19.9467 79.2192 20.22 79.9792 20.22C80.7392 20.22 81.3792 19.9467 81.8992 19.4C82.4326 18.8533 82.6992 18.0933 82.6992 17.12C82.6992 16.16 82.4326 15.4133 81.8992 14.88C81.3792 14.3333 80.7392 14.06 79.9792 14.06C79.2192 14.06 78.5726 14.3333 78.0392 14.88C77.5192 15.4133 77.2592 16.16 77.2592 17.12C77.2592 18.08 77.5192 18.84 78.0392 19.4ZM79.9792 11.96C81.4459 11.96 82.6526 12.4467 83.5992 13.42C84.5592 14.3933 85.0392 15.6267 85.0392 17.12C85.0392 18.6133 84.5592 19.8533 83.5992 20.84C82.6526 21.8133 81.4459 22.3 79.9792 22.3C78.5259 22.3 77.3192 21.8133 76.3592 20.84C75.4126 19.8533 74.9392 18.6133 74.9392 17.12C74.9392 15.6267 75.4126 14.3933 76.3592 13.42C77.3192 12.4467 78.5259 11.96 79.9792 11.96ZM92.9813 12.2V14.56C92.7146 14.52 92.4613 14.5 92.2213 14.5C90.4746 14.5 89.6013 15.4533 89.6013 17.36V22H87.2813V12.26H89.5413V13.82C89.7679 13.3 90.1346 12.8933 90.6413 12.6C91.1479 12.2933 91.7213 12.14 92.3613 12.14C92.5746 12.14 92.7813 12.16 92.9813 12.2ZM96.4403 16.06H101.22C101.194 15.4467 100.974 14.9333 100.56 14.52C100.16 14.1067 99.5803 13.9 98.8203 13.9C98.127 13.9 97.567 14.12 97.1403 14.56C96.7136 14.9867 96.4803 15.4867 96.4403 16.06ZM101.48 18.6L103.44 19.22C103.16 20.1133 102.634 20.8533 101.86 21.44C101.1 22.0133 100.16 22.3 99.0403 22.3C97.6536 22.3 96.4736 21.8267 95.5003 20.88C94.5403 19.9333 94.0603 18.6667 94.0603 17.08C94.0603 15.5867 94.527 14.36 95.4603 13.4C96.407 12.44 97.5203 11.96 98.8003 11.96C100.294 11.96 101.46 12.42 102.3 13.34C103.14 14.2467 103.56 15.4733 103.56 17.02C103.56 17.4333 103.54 17.68 103.5 17.76H96.3803C96.407 18.4933 96.6736 19.1 97.1803 19.58C97.7003 20.06 98.3203 20.3 99.0403 20.3C100.294 20.3 101.107 19.7333 101.48 18.6Z" fill="white"/>
<path d="M120 16.697L113 10V23L120 16.697Z" fill="white"/>
</svg>
