<svg width="217" height="61" viewBox="0 0 217 61" fill="none" xmlns="http://www.w3.org/2000/svg">
<g filter="url(#filter0_d_1_603)">
<circle cx="25.5" cy="25.5" r="20.5" fill="white"/>
<path d="M30.0448 15H19.9552C16.6714 15 14 17.6714 14 20.9552V31.0449C14 34.3285 16.6714 37 19.9552 37H30.0449C33.3285 37 36 34.3285 36 31.0449V20.9552C36 17.6714 33.3285 15 30.0448 15V15ZM34.7102 31.0449C34.7102 33.6174 32.6174 35.7102 30.0448 35.7102H19.9552C17.3826 35.7102 15.2897 33.6174 15.2897 31.0449V20.9552C15.2897 18.3826 17.3826 16.2897 19.9552 16.2897H30.0449C32.6174 16.2897 34.7102 18.3826 34.7102 20.9552V31.0449Z" fill="#A7A7A7"/>
<path d="M25 19.9844C21.683 19.9844 18.9845 22.6828 18.9845 25.9998C18.9845 29.3168 21.683 32.0153 25 32.0153C28.317 32.0153 31.0154 29.3168 31.0154 25.9998C31.0154 22.6828 28.317 19.9844 25 19.9844ZM25 30.7255C22.3943 30.7255 20.2743 28.6056 20.2743 25.9998C20.2743 23.3942 22.3943 21.2741 25 21.2741C27.6058 21.2741 29.7257 23.3942 29.7257 25.9998C29.7257 28.6056 27.6058 30.7255 25 30.7255Z" fill="#A7A7A7"/>
<path d="M31.1593 17.8481C30.179 17.8481 29.3818 18.6456 29.3818 19.6256C29.3818 20.6059 30.179 21.4033 31.1593 21.4033C32.1395 21.4033 32.9369 20.6059 32.9369 19.6256C32.9369 18.6454 32.1395 17.8481 31.1593 17.8481ZM31.1593 20.1134C30.8904 20.1134 30.6715 19.8945 30.6715 19.6256C30.6715 19.3566 30.8904 19.1379 31.1593 19.1379C31.4283 19.1379 31.6472 19.3566 31.6472 19.6256C31.6472 19.8945 31.4283 20.1134 31.1593 20.1134Z" fill="#A7A7A7"/>
<circle cx="77.5" cy="25.5" r="20.5" fill="white"/>
<g clip-path="url(#clip0_1_603)">
<path d="M90 18.2287C88.4274 18.304 88.4617 18.2979 88.284 18.3134L89.2153 15.5472C89.2153 15.5472 86.3081 16.6594 85.5711 16.8584C83.6356 15.0491 80.7585 14.9691 78.7016 16.2839C77.0172 17.3608 76.1132 19.2102 76.4147 21.3717C73.1366 20.8986 70.3745 19.2826 68.1939 16.5582L67.5042 15.6967L66.9888 16.681C66.3374 17.9248 66.1211 19.3468 66.3796 20.6852C66.4856 21.2343 66.6659 21.758 66.9155 22.2483L66.3239 22.0099L66.2537 23.038C66.1826 24.0824 66.5169 25.3015 67.1482 26.2989C67.326 26.5798 67.5549 26.8883 67.845 27.1925L67.5393 27.1438L67.9123 28.3218C68.4027 29.8697 69.4212 31.0672 70.743 31.7329C69.423 32.3155 68.3566 32.6872 66.6037 33.2869L65 33.8352L66.4812 34.6774C67.046 34.9986 69.0417 36.0711 71.0135 36.3929C75.3966 37.1078 80.3315 36.5256 83.6537 33.4138C86.4519 30.7929 87.3701 27.0646 87.1794 23.1848C87.1506 22.5974 87.3053 22.0369 87.615 21.6066C88.2355 20.7451 89.9962 18.2344 90 18.2287ZM86.4437 20.6941C85.9293 21.4084 85.6716 22.3207 85.7178 23.2626C85.9103 27.1761 84.8864 30.2111 82.6744 32.2828C80.0906 34.703 75.9228 35.653 71.2403 34.8891C70.3923 34.7508 69.5158 34.4412 68.7905 34.1319C70.2601 33.6061 71.395 33.1373 73.2277 32.2352L75.7862 30.9758L72.9615 30.7877C71.6084 30.6976 70.4817 30.0157 69.7892 28.9084C70.1569 28.8862 70.5115 28.8243 70.8645 28.7219L73.5587 27.9416L70.842 27.2497C69.5219 26.9134 68.7695 26.092 68.3707 25.462C68.1088 25.048 67.9377 24.6239 67.8351 24.233C68.1075 24.3089 68.425 24.3631 68.9371 24.4158L71.4516 24.6745L69.4594 23.0582C68.0239 21.8938 67.4487 20.1445 67.8704 18.4627C72.3503 23.2953 77.6104 22.9321 78.1399 23.0598C78.0234 21.8825 78.0203 21.8798 77.9898 21.7677C77.3117 19.2748 78.7978 18.0091 79.468 17.5806C80.868 16.6858 83.0902 16.5509 84.6295 18.0251C84.9619 18.3433 85.4115 18.4685 85.8322 18.3598C86.2099 18.2622 86.5198 18.1588 86.8233 18.0464L86.1916 19.9225L86.998 19.9231C86.8458 20.1353 86.6633 20.3894 86.4437 20.6941Z" fill="#F78CB6"/>
</g>
<circle cx="129.5" cy="25.5" r="20.5" fill="white"/>
<path d="M132.888 25.4038L127.263 21.8881C127.046 21.7527 126.773 21.7455 126.55 21.8694C126.326 21.9933 126.187 22.2288 126.187 22.4844V29.5156C126.187 29.7712 126.326 30.0067 126.55 30.1306C126.656 30.1895 126.773 30.2188 126.891 30.2188C127.02 30.2188 127.149 30.183 127.263 30.1119L132.888 26.5963C133.094 26.4678 133.219 26.2424 133.219 26C133.219 25.7576 133.094 25.5322 132.888 25.4038ZM127.594 28.247V23.753L131.189 26L127.594 28.247Z" fill="#A7A7A7"/>
<path d="M137.484 16.8594H120.516C118.577 16.8594 117 18.4365 117 20.375V31.625C117 33.5635 118.577 35.1406 120.516 35.1406H137.484C139.423 35.1406 141 33.5635 141 31.625V20.375C141 18.4365 139.423 16.8594 137.484 16.8594ZM139.594 31.625C139.594 32.7881 138.647 33.7344 137.484 33.7344H120.516C119.353 33.7344 118.406 32.7881 118.406 31.625V20.375C118.406 19.2119 119.353 18.2656 120.516 18.2656H137.484C138.647 18.2656 139.594 19.2119 139.594 20.375V31.625Z" fill="#A7A7A7"/>
<circle cx="181.5" cy="25.5" r="20.5" fill="white"/>
<path d="M189.539 15H173.461C172.104 15 171 16.104 171 17.4609V33.5391C171 34.896 172.104 36 173.461 36H189.539C190.896 36 192 34.896 192 33.5391V17.4609C192 16.104 190.896 15 189.539 15ZM190.359 33.5391C190.359 33.9914 189.991 34.3594 189.539 34.3594H184.863V27.6738H187.398L187.816 25.1309H184.863V23.3672C184.863 22.6709 185.398 22.1367 186.094 22.1367H187.775V19.5938H186.094C184.005 19.5938 182.321 21.2856 182.321 23.3743V25.1309H179.859V27.6738H182.321V34.3594H173.461C173.009 34.3594 172.641 33.9914 172.641 33.5391V17.4609C172.641 17.0086 173.009 16.6406 173.461 16.6406H189.539C189.991 16.6406 190.359 17.0086 190.359 17.4609V33.5391Z" fill="#A7A7A7"/>
</g>
<defs>
<filter id="filter0_d_1_603" x="0" y="0" width="217" height="61" filterUnits="userSpaceOnUse" color-interpolation-filters="sRGB">
<feFlood flood-opacity="0" result="BackgroundImageFix"/>
<feColorMatrix in="SourceAlpha" type="matrix" values="0 0 0 0 0 0 0 0 0 0 0 0 0 0 0 0 0 0 127 0" result="hardAlpha"/>
<feOffset dx="5" dy="5"/>
<feGaussianBlur stdDeviation="5"/>
<feColorMatrix type="matrix" values="0 0 0 0 0.816667 0 0 0 0 0.752014 0 0 0 0 0.752014 0 0 0 0.25 0"/>
<feBlend mode="normal" in2="BackgroundImageFix" result="effect1_dropShadow_1_603"/>
<feBlend mode="normal" in="SourceGraphic" in2="effect1_dropShadow_1_603" result="shape"/>
</filter>
<clipPath id="clip0_1_603">
<rect width="25" height="26" fill="white" transform="translate(65 13)"/>
</clipPath>
</defs>
</svg>
